<svg width="40" height="40" viewBox="0 0 40 40" fill="none" xmlns="http://www.w3.org/2000/svg" class="hidden lg:block w-10 h-10"><path d="M14.264 29.969c-5.162.056-9.918-2.45-12.093-6.917A12.269 12.269 0 0 1 1 17.825c0-1.807.401-3.594 1.171-5.228A16.033 16.033 0 0 1 9.896 4.72L12.42 3.49l2.46 5.046-2.526 1.237a10.444 10.444 0 0 0-5.05 5.082 6.767 6.767 0 0 0-.056 5.699c1.811 3.706 7.043 4.887 11.664 2.632l2.525-1.237 2.46 5.046-2.526 1.237a16.526 16.526 0 0 1-7.07 1.698" fill="#002C65"></path><path d="M27.922 36.508 25.35 31.51l2.497-1.284c4.574-2.357 6.767-7.262 4.877-10.93-1.89-3.669-7.136-4.752-11.71-2.385l-2.497 1.283-2.572-4.998 2.497-1.284c7.328-3.8 15.972-1.615 19.276 4.807 3.304 6.422 0 14.73-7.309 18.501l-2.487 1.284v.004Z" fill="#0062E1"></path></svg>